<svg xmlns="http://www.w3.org/2000/svg" viewBox="0 0 96 96" role="img" aria-label="Kumar's Lab flask logo">
  <defs>
    <linearGradient id="glass" x1="24" x2="74" y1="14" y2="86" gradientUnits="userSpaceOnUse">
      <stop offset="0" stop-color="#ffffff"/>
      <stop offset="0.52" stop-color="#eaf7f3"/>
      <stop offset="1" stop-color="#b9e2d8"/>
    </linearGradient>
    <linearGradient id="liquid" x1="23" x2="75" y1="54" y2="86" gradientUnits="userSpaceOnUse">
      <stop offset="0" stop-color="#2fb88f"/>
      <stop offset="0.55" stop-color="#2477b8"/>
      <stop offset="1" stop-color="#203f8f"/>
    </linearGradient>
    <filter id="shadow" x="-20%" y="-20%" width="140%" height="145%">
      <feDropShadow dx="0" dy="7" stdDeviation="5" flood-color="#111820" flood-opacity="0.2"/>
    </filter>
  </defs>
  <rect width="96" height="96" rx="22" fill="#f8f5ed"/>
  <circle cx="73" cy="23" r="8" fill="#f0a531" opacity="0.9"/>
  <circle cx="21" cy="72" r="7" fill="#d15f2f" opacity="0.82"/>
  <path
    d="M37 13h22v8l-5 1v23.5l24.6 34.2c3.9 5.4 0 12.9-6.7 12.9H24.1c-6.7 0-10.6-7.5-6.7-12.9L42 45.5V22l-5-1v-8Z"
    fill="url(#glass)"
    filter="url(#shadow)"
  />
  <path
    d="M37 13h22v8l-5 1v23.5l24.6 34.2c3.9 5.4 0 12.9-6.7 12.9H24.1c-6.7 0-10.6-7.5-6.7-12.9L42 45.5V22l-5-1v-8Z"
    fill="none"
    stroke="#132729"
    stroke-width="4"
    stroke-linejoin="round"
  />
  <path
    d="M28.3 70.7c9.6-5.4 17.4 5.9 28.1.4 4.9-2.5 10.1-2.2 14.8.6l7.4 10.2c3.3 4.6 0 10.9-5.7 10.9H23.1c-5.7 0-9-6.3-5.7-10.9l10.9-11.2Z"
    fill="url(#liquid)"
  />
  <path
    d="M28.2 70.6c9.8-5.1 18.2 5.8 28.3.4 5-2.7 10.5-2 14.7.7"
    fill="none"
    stroke="#eafaf5"
    stroke-width="3"
    stroke-linecap="round"
    opacity="0.8"
  />
  <path d="M42 24h12" stroke="#132729" stroke-width="4" stroke-linecap="round"/>
  <path d="M37 13h22" stroke="#132729" stroke-width="4" stroke-linecap="round"/>
  <circle cx="40" cy="57" r="3.5" fill="#ffffff" opacity="0.86"/>
  <circle cx="57" cy="63" r="2.5" fill="#ffffff" opacity="0.72"/>
  <circle cx="51" cy="38" r="3" fill="#2477b8" opacity="0.8"/>
</svg>
